<svg xmlns="http://www.w3.org/2000/svg" viewBox="0 0 32 32" fill="none">
  <path d="M16 1 L22 10 L10 10 Z" fill="#f5e6c8" opacity="0.8"/>
  <path d="M10 10 L22 10 L31 17 L1 17 Z" fill="#d4a853" opacity="0.5"/>
  <path d="M16 1 L10 10 L1 17 L16 31 L31 17 L22 10 Z" stroke="#b8963e" stroke-width="1.5" stroke-linejoin="round" fill="none"/>
  <path d="M1 17 L16 31 L31 17" stroke="#b8963e" stroke-width="0" fill="none"/>
  <line x1="10" y1="10" x2="22" y2="10" stroke="#b8963e" stroke-width="1" opacity="0.7"/>
  <line x1="1" y1="17" x2="31" y2="17" stroke="#b8963e" stroke-width="0.6" opacity="0.5"/>
  <line x1="16" y1="10" x2="16" y2="31" stroke="#b8963e" stroke-width="0.6" opacity="0.35"/>
  <path d="M1 17 L16 23 L31 17" stroke="#b8963e" stroke-width="0.6" opacity="0.3" fill="none"/>
  <path d="M16 1 L22 10 L10 10 Z" fill="#b8963e" fill-opacity="0.22"/>
  <path d="M16 1 L31 17 L22 10 Z" fill="#b8963e" fill-opacity="0.1"/>
  <path d="M1 17 L16 23 L16 31 Z" fill="#b8963e" fill-opacity="0.12"/>
  <path d="M31 17 L16 23 L16 31 Z" fill="#b8963e" fill-opacity="0.08"/>
</svg>
